Coordinates
version=1
nRows=9
nColumns=24
inDegrees=yes

Units are S.I. units (second, meters, Newtons, ...)
Angles are in degrees.

endheader
time	pelvis_tilt	pelvis_list	pelvis_rotation	pelvis_tx	pelvis_ty	pelvis_tz	hip_flexion_r	hip_adduction_r	hip_rotation_r	knee_angle_r	ankle_angle_r	subtalar_angle_r	mtp_angle_r	hip_flexion_l	hip_adduction_l	hip_rotation_l	knee_angle_l	ankle_angle_l	subtalar_angle_l	mtp_angle_l	lumbar_extension	lumbar_bending	lumbar_rotation
      1.07083333	    -11.94295064	     -1.75706177	     -6.66042590	     -0.09953789	      0.96561353	      0.34989114	     -7.24559831	      7.15620301	      8.04924113	     -1.74546022	     -2.49183576	      3.60986626	    -45.08572304	     31.81593939	     -2.61582453	    -10.56254579	      4.96165250	    -17.37615703	     -8.35067855	    -10.82706204	     24.68993956	      3.80911070	      6.75862677
      1.07500000	    -11.94752214	     -1.76513933	     -6.69897415	     -0.09380491	      0.96513548	      0.34986558	     -7.36794930	      7.13026269	      8.09084436	     -2.14475462	     -2.57180421	      3.64416570	    -45.07641026	     31.78266558	     -2.56465270	    -10.41971065	      4.91427302	    -17.41999380	     -8.32071518	    -10.83393862	     24.74629259	      3.79299769	      6.75932937
      1.07916667	    -11.95317337	     -1.76868201	     -6.73224937	     -0.08800577	      0.96467249	      0.34981320	     -7.47614030	      7.09730751	      8.11591583	     -2.57239832	     -2.64620313	      3.70277318	    -45.06427661	     31.74969068	     -2.50883345	    -10.21927209	      4.80038829	    -17.49428864	     -8.30210204	    -10.84019022	     24.78948553	      3.77465078	      6.76504886
      1.08333333	    -11.94744622	     -1.77422751	     -6.75332891	     -0.08219218	      0.96424625	      0.34974735	     -7.57590546	      7.06652199	      8.11416335	     -3.03521136	     -2.71931390	      3.79046207	    -45.04984871	     31.71557871	     -2.45302469	     -9.98987002	      4.60674145	    -17.59988978	     -8.30974480	    -10.84540786	     24.82537202	      3.75061641	      6.77636562
      1.08750000	    -12.03737796	     -1.77809196	     -6.59669411	     -0.07619397	      0.96358279	      0.34893714	     -7.54574581	      7.00728386	      7.62250404	     -3.55792307	     -2.61146842	      4.34911340	    -44.89331420	     31.79606174	     -2.23821130	     -9.31342274	      4.39898963	    -17.97515391	     -9.01698601	    -10.88304040	     24.94903056	      3.83044665	      6.79350951
      1.09166667	    -12.00304587	     -1.77058391	     -6.63591384	     -0.07027355	      0.96325661	      0.34892653	     -7.64883596	      6.95714166	      7.66780812	     -4.06685965	     -2.72584455	      4.41792230	    -44.88068316	     31.73021462	     -2.18994005	     -9.15777775	      4.08358879	    -18.08528030	     -9.01118478	    -10.88495233	     24.97997549	      3.76392210	      6.80315957
      1.09583333	    -12.01636409	     -1.79185277	     -6.53856707	     -0.06433462	      0.96280747	      0.34840633	     -7.66609107	      6.92375580	      7.37397341	     -4.61989570	     -2.81947534	      4.88107619	    -44.77802204	     31.74459448	     -2.06249672	     -8.71065282	      3.75677356	    -18.55095110	     -9.29861695	    -10.89089570	     24.94433424	      3.81473990	      6.80481412
      1.10000000	    -11.96909960	     -1.75809254	     -6.60156798	     -0.05827341	      0.96258659	      0.34843174	     -7.73742964	      6.83846908	      7.37377276	     -5.21646872	     -2.93250141	      4.93539549	    -44.76456929	     31.63333158	     -2.00530645	     -8.55287444	      3.39945246	    -18.66923591	     -9.32522130	    -10.89000131	     25.01914322	      3.72974815	      6.81907455
      1.10416667	    -12.00067359	     -1.69274631	     -6.49547540	     -0.05198848	      0.96217019	      0.34759742	     -7.67810922	      6.66580679	      6.76582416	     -5.87626739	     -2.95324801	      5.67093952	    -44.57484148	     31.59960374	     -1.74125375	     -7.99589891	      3.13571854	    -19.38100356	    -10.12781984	    -10.86822320	     25.14439343	      3.72580996	      6.83221475
